<?xml version="1.0" encoding="utf-8"?>
<!-- Generator: Adobe Illustrator 15.1.0, SVG Export Plug-In  -->
<!DOCTYPE svg PUBLIC "-//W3C//DTD SVG 1.1//EN" "http://www.w3.org/Graphics/SVG/1.1/DTD/svg11.dtd" [
	<!ENTITY ns_flows "http://ns.adobe.com/Flows/1.0/">
]>
<svg version="1.1"
	 xmlns="http://www.w3.org/2000/svg" xmlns:xlink="http://www.w3.org/1999/xlink" xmlns:a="http://ns.adobe.com/AdobeSVGViewerExtensions/3.0/"
	 x="0px" y="0px" width="225px" height="400px" viewBox="-15.8 0 225 400"
	 overflow="visible" enable-background="new -15.8 0 225 400" xml:space="preserve">
<defs>
</defs>
<linearGradient id="SVGID_1_" gradientUnits="userSpaceOnUse" x1="68.4868" y1="367.6357" x2="68.4868" y2="125.7861">
	<stop  offset="0" style="stop-color:#FADD72"/>
	<stop  offset="0.3" style="stop-color:#F9DC6F"/>
	<stop  offset="0.4894" style="stop-color:#F8D767"/>
	<stop  offset="0.6482" style="stop-color:#F5CE58"/>
	<stop  offset="0.79" style="stop-color:#F1C343"/>
	<stop  offset="0.9193" style="stop-color:#ECB429"/>
	<stop  offset="1" style="stop-color:#E8A814"/>
</linearGradient>
<polygon fill="url(#SVGID_1_)" points="106.7,367.6 30.2,332.2 30.2,125.8 106.7,161.2 "/>
<linearGradient id="SVGID_2_" gradientUnits="userSpaceOnUse" x1="64.9297" y1="227.7842" x2="64.9297" y2="89.3946">
	<stop  offset="0" style="stop-color:#8FD5E2"/>
	<stop  offset="0.2893" style="stop-color:#69CDE0"/>
	<stop  offset="0.9322" style="stop-color:#0ABADC"/>
	<stop  offset="1" style="stop-color:#00B8DC"/>
</linearGradient>
<polygon fill="url(#SVGID_2_)" points="55.1,137.3 55.1,343.8 74.7,352.8 74.7,146.4 "/>
<linearGradient id="SVGID_3_" gradientUnits="userSpaceOnUse" x1="150.3057" y1="367.6357" x2="150.3056" y2="123.9214">
	<stop  offset="0" style="stop-color:#FADD72"/>
	<stop  offset="0.3667" style="stop-color:#F0C94D"/>
	<stop  offset="1" style="stop-color:#E0A910"/>
</linearGradient>
<polygon fill="url(#SVGID_3_)" points="193.9,123.9 106.7,161.2 106.7,367.6 193.9,330.4 "/>
<linearGradient id="SVGID_4_" gradientUnits="userSpaceOnUse" x1="152.6987" y1="352.1582" x2="152.6987" y2="137.354">
	<stop  offset="0" style="stop-color:#8FD5E2"/>
	<stop  offset="0.1197" style="stop-color:#8AD4E2"/>
	<stop  offset="0.2544" style="stop-color:#7DD1E1"/>
	<stop  offset="0.3965" style="stop-color:#66CDE0"/>
	<stop  offset="0.5436" style="stop-color:#47C6DF"/>
	<stop  offset="0.693" style="stop-color:#1FBEDD"/>
	<stop  offset="0.7914" style="stop-color:#00B8DC"/>
</linearGradient>
<polygon fill="url(#SVGID_4_)" points="142.9,145.7 142.9,352.2 162.5,343.8 162.5,137.4 "/>
<linearGradient id="SVGID_5_" gradientUnits="userSpaceOnUse" x1="24.021" y1="145.1812" x2="107.1533" y2="145.1812">
	<stop  offset="0" style="stop-color:#FADD72"/>
	<stop  offset="0.282" style="stop-color:#FADD6F"/>
	<stop  offset="0.46" style="stop-color:#FADB67"/>
	<stop  offset="0.6093" style="stop-color:#FAD858"/>
	<stop  offset="0.7427" style="stop-color:#F9D543"/>
	<stop  offset="0.8654" style="stop-color:#F9D029"/>
	<stop  offset="0.9788" style="stop-color:#F8CA08"/>
	<stop  offset="1" style="stop-color:#F8C901"/>
</linearGradient>
<polygon fill="url(#SVGID_5_)" points="107.2,178.6 24,143.2 24,111.8 107.2,147.2 "/>
<polygon fill="#00B9DC" points="51.6,123.5 51.6,154.9 71.2,163.2 71.2,131.9 "/>
<linearGradient id="SVGID_6_" gradientUnits="userSpaceOnUse" x1="107.1533" y1="145.6475" x2="200.9976" y2="145.6475">
	<stop  offset="0" style="stop-color:#FADD72"/>
	<stop  offset="0.4332" style="stop-color:#F4D041"/>
	<stop  offset="1" style="stop-color:#ECC004"/>
</linearGradient>
<polygon fill="url(#SVGID_6_)" points="201,112.7 107.2,147.2 107.2,178.6 201,143.2 "/>
<polygon fill="#63C0CD" points="145.6,133.1 145.6,164.1 165.1,156.7 165.1,125.9 "/>
<linearGradient id="SVGID_7_" gradientUnits="userSpaceOnUse" x1="24.021" y1="118.1226" x2="200.9976" y2="118.1226">
	<stop  offset="0" style="stop-color:#FADD72"/>
	<stop  offset="0.3667" style="stop-color:#F0C94D"/>
	<stop  offset="1" style="stop-color:#E0A910"/>
</linearGradient>
<polygon fill="url(#SVGID_7_)" points="24,111.8 113,88.5 201,112.7 107.5,147.7 "/>
<polygon fill="#BFE5ED" points="161.1,101.7 140.7,96.1 51.6,123.9 61.3,128.1 71.2,132.2 "/>
<polygon fill="#B2E0E6" points="165.1,126.1 82.5,96.7 61.3,102.4 145.6,133.5 "/>
<linearGradient id="SVGID_8_" gradientUnits="userSpaceOnUse" x1="241.7305" y1="29.4688" x2="406.8516" y2="29.4688" gradientTransform="matrix(-0.9503 0.3114 0.3114 0.9503 423.6107 -3.5665)">
	<stop  offset="0" style="stop-color:#C1E5E4"/>
	<stop  offset="5.419173e-02" style="stop-color:#BAE2E3"/>
	<stop  offset="0.1356" style="stop-color:#A5DBDF"/>
	<stop  offset="0.2341" style="stop-color:#83D0D9"/>
	<stop  offset="0.346" style="stop-color:#54BFD0"/>
	<stop  offset="0.4676" style="stop-color:#19ABC6"/>
	<stop  offset="0.5153" style="stop-color:#00A2C1"/>
	<stop  offset="0.5572" style="stop-color:#0CA6C3"/>
	<stop  offset="0.6327" style="stop-color:#2BB1C8"/>
	<stop  offset="0.7331" style="stop-color:#5FC3D0"/>
	<stop  offset="0.8547" style="stop-color:#A5DCDB"/>
	<stop  offset="0.9939" style="stop-color:#FFFCE9"/>
</linearGradient>
<path fill="url(#SVGID_8_)" d="M116.1,108.9c0,0,72.8-17.5,85-15c-6.4,4.8-9.9,6.1-15.5,10.4c0,0,8,8.9,11.1,13.6
	c0.5,0.7-73.9-5.1-77.3-3.9l-8.6,2.9c-3.5,1.2-48.5,44.1-50.8,48.9c-2.3,4.8,1.5-25.3,1.5-25.3s-14.4-3.6-20.7-5.5
	c14.4-8.4,68.8-23.3,68.8-23.3L116.1,108.9z"/>
<linearGradient id="SVGID_9_" gradientUnits="userSpaceOnUse" x1="67.2271" y1="-4.5454" x2="-5.562" y2="-4.5454" gradientTransform="matrix(0.9503 -0.3114 0.3114 0.9503 45.5055 121.2181)">
	<stop  offset="0" style="stop-color:#8FD5E2"/>
	<stop  offset="0.2893" style="stop-color:#69CDE0"/>
	<stop  offset="0.9322" style="stop-color:#0ABADC"/>
	<stop  offset="1" style="stop-color:#00B8DC"/>
</linearGradient>
<path fill="url(#SVGID_9_)" d="M112.1,108.5c0,0-54.2,15.5-66.9-4.6c0,0-2.1-5.5-2.1-9.5c0,0-9.9,10.5-5.7,19.8
	c4.2,9.3,18,34.3,71.7-1.5C109.1,112.6,113,111.3,112.1,108.5z"/>
<linearGradient id="SVGID_10_" gradientUnits="userSpaceOnUse" x1="-5.8076" y1="-13.585" x2="68.4365" y2="-13.585" gradientTransform="matrix(0.9503 -0.3114 0.3114 0.9503 45.5055 121.2181)">
	<stop  offset="0.3006" style="stop-color:#8FD5E2"/>
	<stop  offset="0.3992" style="stop-color:#8AD4E2"/>
	<stop  offset="0.5212" style="stop-color:#7BD1E1"/>
	<stop  offset="0.6554" style="stop-color:#61CCE0"/>
	<stop  offset="0.7984" style="stop-color:#3EC5DF"/>
	<stop  offset="0.947" style="stop-color:#12BCDD"/>
	<stop  offset="1" style="stop-color:#00B8DC"/>
</linearGradient>
<path fill="url(#SVGID_10_)" d="M113.4,108.5c0,0-9.3-24.4-30.7-30.4C61.2,72.1,38.1,81,35.4,97c-2.6,16,6.1,23.7,6.1,23.7
	s-5.7-8.7,2.9-20.6c7.3-10,27.6-10.8,47.2-3.8C102.6,100.3,112,116.5,113.4,108.5z"/>
<linearGradient id="SVGID_11_" gradientUnits="userSpaceOnUse" x1="321.9346" y1="-4.4751" x2="248.5977" y2="-4.4751" gradientTransform="matrix(-0.9503 0.3114 0.3114 0.9503 415.3002 -0.8439)">
	<stop  offset="0" style="stop-color:#8FD5E2"/>
	<stop  offset="0.2893" style="stop-color:#69CDE0"/>
	<stop  offset="0.9322" style="stop-color:#0ABADC"/>
	<stop  offset="1" style="stop-color:#00B8DC"/>
</linearGradient>
<path fill="url(#SVGID_11_)" d="M112.5,109c0,0,52.4-21.1,51.3-45.2c0,0-1.4-5.8-3.7-9c0,0,13.9,2.3,15.8,12.4
	c1.9,10,4.9,38.8-58.7,43.3C117.2,110.5,113.4,111.8,112.5,109z"/>
<linearGradient id="SVGID_12_" gradientUnits="userSpaceOnUse" x1="248.3115" y1="-12.7871" x2="323.1562" y2="-12.7871" gradientTransform="matrix(-0.9503 0.3114 0.3114 0.9503 415.3002 -0.8439)">
	<stop  offset="0.3006" style="stop-color:#8FD5E2"/>
	<stop  offset="0.3992" style="stop-color:#8AD4E2"/>
	<stop  offset="0.5212" style="stop-color:#7BD1E1"/>
	<stop  offset="0.6554" style="stop-color:#61CCE0"/>
	<stop  offset="0.7984" style="stop-color:#3EC5DF"/>
	<stop  offset="0.947" style="stop-color:#12BCDD"/>
	<stop  offset="1" style="stop-color:#00B8DC"/>
</linearGradient>
<path fill="url(#SVGID_12_)" d="M111.5,109.8c0,0-6.3-25.4,7.6-43.6c13.9-18.1,37.5-25.3,48.7-14.1c11.2,11.3,8.4,22.9,8.4,22.9
	s-0.3-10.6-14-14.8c-11.5-3.6-28.4,8.4-40.2,26.3C115.5,96.5,117.1,115.5,111.5,109.8z"/>
<path fill="#00B9DC" d="M108.2,100.9c0,0-2.1,17.7,3.2,17.3c5.3-0.5,8.5-0.3,8-3.1C118.8,112.3,114.1,94.2,108.2,100.9z"/>
<linearGradient id="SVGID_13_" gradientUnits="userSpaceOnUse" x1="68.8135" y1="58.6064" x2="79.6201" y2="58.6064" gradientTransform="matrix(0.9993 -3.630000e-02 3.630000e-02 0.9993 -1.5306 -3.1402)">
	<stop  offset="0" style="stop-color:#F6932C"/>
	<stop  offset="0.2081" style="stop-color:#F1882D"/>
	<stop  offset="0.5732" style="stop-color:#E56B2E"/>
	<stop  offset="1" style="stop-color:#D44130"/>
</linearGradient>
<path fill-rule="evenodd" clip-rule="evenodd" fill="url(#SVGID_13_)" d="M79.1,51.1c0.4,0.5,0.7-0.3,1,0.6
	c-1.3,1.1-2.6,1.6-3.8,2.2c-0.3,2.1,1,4.1,0.2,6.3c-1.1-1.3-1.7-2.7-2.3-4c-1.1-0.1-2.1,3-3.3,2.5c1.1-1.8,1.6-3.5,2-5.3
	c-1.2-1.4-2.3-1.3-3.5-2.3c1.2-1.5,2.5,0.1,3.7-0.1c1.3-1.9,2.5-3.8,3.8-5.7c0.5,1.8-0.8,3.8-0.6,5.6"/>
<linearGradient id="SVGID_14_" gradientUnits="userSpaceOnUse" x1="130.1816" y1="20.8555" x2="143.1523" y2="20.8555" gradientTransform="matrix(-1.1104 0.7737 -0.8986 -1.0009 314.7607 -74.1435)">
	<stop  offset="0" style="stop-color:#F6932C"/>
	<stop  offset="0.2081" style="stop-color:#F1882D"/>
	<stop  offset="0.5732" style="stop-color:#E56B2E"/>
	<stop  offset="1" style="stop-color:#D44130"/>
</linearGradient>
<path fill-rule="evenodd" clip-rule="evenodd" fill="url(#SVGID_14_)" d="M140,16.5c-1-0.3-0.6,1-2,0.2c0.5-2.5,1.8-4.2,3-6.1
	c-1.7-2.9-5.6-4.2-6.7-7.6c2.8,0.7,5.1,1.8,7.4,2.9c1.7-0.9-0.2-5.6,2-6c0.3,3.2,1.5,5.7,2.6,8.3c3.1,0.7,4.6-0.4,7.2-0.3
	c-0.1,2.8-3.5,2.1-4.9,3.4c0.2,3.5,0.5,7,0.7,10.4c-2.5-1.8-2.8-5.4-5-7.5"/>
<linearGradient id="SVGID_15_" gradientUnits="userSpaceOnUse" x1="5.1768" y1="78.3403" x2="23.2529" y2="78.3403" gradientTransform="matrix(1.3236 -4.809317e-02 3.628653e-02 0.9993 -9.9194 -2.8355)">
	<stop  offset="0" style="stop-color:#F6932C"/>
	<stop  offset="0.2081" style="stop-color:#F1882D"/>
	<stop  offset="0.5732" style="stop-color:#E56B2E"/>
	<stop  offset="1" style="stop-color:#D44130"/>
</linearGradient>
<path fill-rule="evenodd" clip-rule="evenodd" fill="url(#SVGID_15_)" d="M17.5,64.8c1.2,0,0.8-1.5,2.6-1c-0.8,3.6-2.5,6.5-4.1,9.4
	c2,3.4,6.8,3.8,8,8c-3.5,0-6.3-0.7-9.2-1.3c-2.2,1.8-0.1,7.6-2.8,8.9c-0.2-4.2-1.5-7.3-2.9-10.4c-3.9,0.2-5.8,2.3-9.1,3
	c0.3-3.9,4.5-4.1,6.4-6.4C6.3,70.3,6.2,65.6,6,61c3.1,1.6,3.2,6.4,5.9,8.5"/>
<linearGradient id="SVGID_16_" gradientUnits="userSpaceOnUse" x1="133.7979" y1="46.2061" x2="151.8662" y2="46.2061" gradientTransform="matrix(-1.2278 0.7027 -0.5305 -0.927 388.4645 -24.4224)">
	<stop  offset="0" style="stop-color:#F6932C"/>
	<stop  offset="0.2081" style="stop-color:#F1882D"/>
	<stop  offset="0.5732" style="stop-color:#E56B2E"/>
	<stop  offset="1" style="stop-color:#D44130"/>
</linearGradient>
<path fill-rule="evenodd" clip-rule="evenodd" fill="url(#SVGID_16_)" d="M188.1,45.3c-1.2,0.6,0,1.8-2,2.2c-1-3.9-0.8-7.4-0.8-10.9
	c-3.6-2.2-8.3-0.2-11.6-3.6c3.3-1.8,6.3-2.5,9.3-3.3c1.1-2.8-3.7-7.3-1.8-9.8c2.3,3.9,5.1,6.2,7.9,8.4c3.6-2.1,4.4-5,7.1-7.4
	c1.7,3.8-2.2,6.1-2.8,9.2c2.4,4.4,4.9,8.7,7.3,13.1c-3.7,0.1-6.2-4.5-9.8-5.1"/>
<linearGradient id="SVGID_17_" gradientUnits="userSpaceOnUse" x1="31.8115" y1="37.4644" x2="49.8882" y2="37.4644" gradientTransform="matrix(0.9993 -3.630000e-02 3.630000e-02 0.9993 -1.5306 -3.1402)">
	<stop  offset="0" style="stop-color:#F6932C"/>
	<stop  offset="0.2081" style="stop-color:#F1882D"/>
	<stop  offset="0.5732" style="stop-color:#E56B2E"/>
	<stop  offset="1" style="stop-color:#D44130"/>
</linearGradient>
<path fill-rule="evenodd" clip-rule="evenodd" fill="url(#SVGID_17_)" d="M44.9,22.9c0.9,0,0.6-1.5,1.9-1c-0.6,3.6-1.9,6.4-3,9.4
	c1.6,3.4,5.2,3.8,6.1,8c-2.7,0-4.8-0.7-6.9-1.4c-1.6,1.8,0,7.6-2.1,8.9c-0.2-4.2-1.2-7.3-2.3-10.4c-2.9,0.2-4.4,2.2-6.8,3
	c0.2-3.9,3.4-4,4.8-6.4c-0.1-4.7-0.3-9.3-0.4-14c2.4,1.6,2.5,6.5,4.5,8.6"/>
</svg>
